<?xml version="1.0" standalone="no"?>
<!DOCTYPE svg PUBLIC "-//W3C//DTD SVG 20010904//EN"
 "http://www.w3.org/TR/2001/REC-SVG-20010904/DTD/svg10.dtd">
<svg version="1.0" xmlns="http://www.w3.org/2000/svg"
 width="600.000000pt" height="600.000000pt" viewBox="0 0 600.000000 600.000000"
 preserveAspectRatio="xMidYMid meet">
<metadata>
Created by potrace 1.11, written by Peter Selinger 2001-2013
</metadata>
<g transform="translate(0.000000,600.000000) scale(0.100000,-0.100000)"
fill="#000000" stroke="none">
<path d="M0 3000 l0 -3000 3000 0 3000 0 0 3000 0 3000 -3000 0 -3000 0 0
-3000z m4220 2057 c232 -42 420 -96 530 -152 91 -46 227 -145 295 -213 154
-157 213 -299 222 -540 8 -200 -19 -339 -95 -485 -68 -131 -171 -227 -335
-312 -236 -123 -554 -207 -869 -231 -88 -7 -88 -7 -88 -35 0 -26 3 -28 58 -33
581 -58 921 -179 1164 -414 152 -147 237 -313 273 -533 36 -223 6 -482 -75
-639 -58 -114 -179 -238 -296 -304 -209 -116 -549 -207 -889 -236 -75 -6 -754
-10 -1812 -10 l-1693 0 0 75 0 75 218 2 217 3 3 1923 2 1922 -220 0 -220 0 0
80 0 80 1758 -3 c1616 -2 1765 -4 1852 -20z"/>
<path d="M2850 4045 l0 -875 169 0 c172 0 281 14 339 44 38 20 106 95 132 146
45 88 52 153 54 510 2 522 -6 741 -33 823 -36 112 -101 168 -241 206 -62 18
-104 21 -247 21 l-173 0 0 -875z"/>
<path d="M2850 2038 l0 -971 183 6 c270 10 341 32 418 129 90 114 103 240 96
943 -4 410 -8 523 -20 576 -51 222 -175 289 -531 289 l-146 0 0 -972z"/>
</g>
</svg>
